TITLE ""
FILE "P1Q_t_1110-1119.mp3" MP3
  TRACK 01 AUDIO
    TITLE "P1Q_t_1110-1119_01"
    INDEX 01 00:00:00
  TRACK 02 AUDIO
    TITLE "P1Q_t_1110-1119_02"
    INDEX 01 00:01:23
  TRACK 03 AUDIO
    TITLE "P1Q_t_1110-1119_03"
    INDEX 01 00:01:47
  TRACK 04 AUDIO
    TITLE "P1Q_t_1110-1119_04"
    INDEX 01 00:05:58
  TRACK 05 AUDIO
    TITLE "P1Q_t_1110-1119_05"
    INDEX 01 00:06:03
  TRACK 06 AUDIO
    TITLE "P1Q_t_1110-1119_06"
    INDEX 01 00:10:09
  TRACK 07 AUDIO
    TITLE "P1Q_t_1110-1119_07"
    INDEX 01 00:10:54
  TRACK 08 AUDIO
    TITLE "P1Q_t_1110-1119_08"
    INDEX 01 00:11:67
  TRACK 09 AUDIO
    TITLE "P1Q_t_1110-1119_09"
    INDEX 01 00:12:13
  TRACK 10 AUDIO
    TITLE "P1Q_t_1110-1119_10"
    INDEX 01 00:13:58
  TRACK 11 AUDIO
    TITLE "P1Q_t_1110-1119_11"
    INDEX 01 00:14:03
  TRACK 12 AUDIO
    TITLE "P1Q_t_1110-1119_12"
    INDEX 01 00:17:58
  TRACK 13 AUDIO
    TITLE "P1Q_t_1110-1119_13"
    INDEX 01 00:18:30
  TRACK 14 AUDIO
    TITLE "P1Q_t_1110-1119_14"
    INDEX 01 00:19:51
  TRACK 15 AUDIO
    TITLE "P1Q_t_1110-1119_15"
    INDEX 01 00:19:70
  TRACK 16 AUDIO
    TITLE "P1Q_t_1110-1119_16"
    INDEX 01 00:22:45
  TRACK 17 AUDIO
    TITLE "P1Q_t_1110-1119_17"
    INDEX 01 00:22:63
  TRACK 18 AUDIO
    TITLE "P1Q_t_1110-1119_18"
    INDEX 01 00:27:56
  TRACK 19 AUDIO
    TITLE "P1Q_t_1110-1119_19"
    INDEX 01 00:28:26
  TRACK 20 AUDIO
    TITLE "P1Q_t_1110-1119_20"
    INDEX 01 00:29:49
  TRACK 21 AUDIO
    TITLE "P1Q_t_1110-1119_21"
    INDEX 01 00:29:69
  TRACK 22 AUDIO
    TITLE "P1Q_t_1110-1119_22"
    INDEX 01 00:33:43
  TRACK 23 AUDIO
    TITLE "P1Q_t_1110-1119_23"
    INDEX 01 00:33:63
  TRACK 24 AUDIO
    TITLE "P1Q_t_1110-1119_24"
    INDEX 01 00:38:58
  TRACK 25 AUDIO
    TITLE "P1Q_t_1110-1119_25"
    INDEX 01 00:39:32
  TRACK 26 AUDIO
    TITLE "P1Q_t_1110-1119_26"
    INDEX 01 00:40:49
  TRACK 27 AUDIO
    TITLE "P1Q_t_1110-1119_27"
    INDEX 01 00:40:73
  TRACK 28 AUDIO
    TITLE "P1Q_t_1110-1119_28"
    INDEX 01 00:43:53
  TRACK 29 AUDIO
    TITLE "P1Q_t_1110-1119_29"
    INDEX 01 00:43:73
  TRACK 30 AUDIO
    TITLE "P1Q_t_1110-1119_30"
    INDEX 01 00:47:43
  TRACK 31 AUDIO
    TITLE "P1Q_t_1110-1119_31"
    INDEX 01 00:48:13
  TRACK 32 AUDIO
    TITLE "P1Q_t_1110-1119_32"
    INDEX 01 00:49:32
  TRACK 33 AUDIO
    TITLE "P1Q_t_1110-1119_33"
    INDEX 01 00:49:54
  TRACK 34 AUDIO
    TITLE "P1Q_t_1110-1119_34"
    INDEX 01 00:52:29
  TRACK 35 AUDIO
    TITLE "P1Q_t_1110-1119_35"
    INDEX 01 00:52:48
  TRACK 36 AUDIO
    TITLE "P1Q_t_1110-1119_36"
    INDEX 01 00:57:53
  TRACK 37 AUDIO
    TITLE "P1Q_t_1110-1119_37"
    INDEX 01 00:58:23
  TRACK 38 AUDIO
    TITLE "P1Q_t_1110-1119_38"
    INDEX 01 00:59:52
  TRACK 39 AUDIO
    TITLE "P1Q_t_1110-1119_39"
    INDEX 01 00:59:72
  TRACK 40 AUDIO
    TITLE "P1Q_t_1110-1119_40"
    INDEX 01 01:03:07
  TRACK 41 AUDIO
    TITLE "P1Q_t_1110-1119_41"
    INDEX 01 01:03:27
  TRACK 42 AUDIO
    TITLE "P1Q_t_1110-1119_42"
    INDEX 01 01:07:40
  TRACK 43 AUDIO
    TITLE "P1Q_t_1110-1119_43"
    INDEX 01 01:08:08
  TRACK 44 AUDIO
    TITLE "P1Q_t_1110-1119_44"
    INDEX 01 01:09:31
  TRACK 45 AUDIO
    TITLE "P1Q_t_1110-1119_45"
    INDEX 01 01:09:51
  TRACK 46 AUDIO
    TITLE "P1Q_t_1110-1119_46"
    INDEX 01 01:14:01
  TRACK 47 AUDIO
    TITLE "P1Q_t_1110-1119_47"
    INDEX 01 01:14:20
  TRACK 48 AUDIO
    TITLE "P1Q_t_1110-1119_48"
    INDEX 01 01:17:46
  TRACK 49 AUDIO
    TITLE "P1Q_t_1110-1119_49"
    INDEX 01 01:18:16
  TRACK 50 AUDIO
    TITLE "P1Q_t_1110-1119_50"
    INDEX 01 01:19:47
  TRACK 51 AUDIO
    TITLE "P1Q_t_1110-1119_51"
    INDEX 01 01:19:69
  TRACK 52 AUDIO
    TITLE "P1Q_t_1110-1119_52"
    INDEX 01 01:23:16
  TRACK 53 AUDIO
    TITLE "P1Q_t_1110-1119_53"
    INDEX 01 01:23:33
  TRACK 54 AUDIO
    TITLE "P1Q_t_1110-1119_54"
    INDEX 01 01:28:21
  TRACK 55 AUDIO
    TITLE "P1Q_t_1110-1119_55"
    INDEX 01 01:28:66
  TRACK 56 AUDIO
    TITLE "P1Q_t_1110-1119_56"
    INDEX 01 01:30:16
  TRACK 57 AUDIO
    TITLE "P1Q_t_1110-1119_57"
    INDEX 01 01:30:35
  TRACK 58 AUDIO
    TITLE "P1Q_t_1110-1119_58"
    INDEX 01 01:35:40
  TRACK 59 AUDIO
    TITLE "P1Q_t_1110-1119_59"
    INDEX 01 01:35:58
  TRACK 60 AUDIO
    TITLE "P1Q_t_1110-1119_60"
    INDEX 01 01:39:16
